<mxfile host="app.diagrams.net" agent="Mozilla/5.0 (Windows NT 10.0; Win64; x64; rv:129.0) Gecko/20100101 Firefox/129.0" version="24.7.7">
  <diagram id="tDPf8CNvzOaNMvIxZvwo" name="Seite-1">
    <mxGraphModel dx="794" dy="339" grid="1" gridSize="10" guides="1" tooltips="1" connect="1" arrows="1" fold="1" page="1" pageScale="1" pageWidth="827" pageHeight="1169" math="0" shadow="0">
      <root>
        <mxCell id="0" />
        <mxCell id="1" parent="0" />
        <mxCell id="lzmcIZGoqttrfyCk76lP-21" style="edgeStyle=orthogonalEdgeStyle;rounded=0;orthogonalLoop=1;jettySize=auto;html=1;exitX=0.5;exitY=1;exitDx=0;exitDy=0;entryX=0.5;entryY=0;entryDx=0;entryDy=0;strokeWidth=4;fontSize=20;curved=1;fillColor=#dae8fc;strokeColor=#6c8ebf;" parent="1" edge="1">
          <mxGeometry relative="1" as="geometry">
            <mxPoint x="294" y="93" as="sourcePoint" />
            <mxPoint x="294" y="140" as="targetPoint" />
          </mxGeometry>
        </mxCell>
        <mxCell id="X_1ddgbnGcCbuA_kLiaL-2" style="edgeStyle=orthogonalEdgeStyle;rounded=0;orthogonalLoop=1;jettySize=auto;html=1;exitX=0.25;exitY=1;exitDx=0;exitDy=0;curved=1;strokeWidth=4;entryX=0.25;entryY=0;entryDx=0;entryDy=0;fillColor=#0050ef;strokeColor=#001DBC;" parent="1" edge="1">
          <mxGeometry relative="1" as="geometry">
            <mxPoint x="263" y="93" as="sourcePoint" />
            <mxPoint x="263" y="140" as="targetPoint" />
          </mxGeometry>
        </mxCell>
        <mxCell id="X_1ddgbnGcCbuA_kLiaL-3" style="edgeStyle=orthogonalEdgeStyle;rounded=0;orthogonalLoop=1;jettySize=auto;html=1;exitX=0.75;exitY=1;exitDx=0;exitDy=0;entryX=0.75;entryY=0;entryDx=0;entryDy=0;curved=1;strokeWidth=4;fillColor=#ffe6cc;strokeColor=#d79b00;" parent="1" edge="1">
          <mxGeometry relative="1" as="geometry">
            <mxPoint x="322" y="93" as="sourcePoint" />
            <mxPoint x="322" y="140" as="targetPoint" />
          </mxGeometry>
        </mxCell>
        <mxCell id="lzmcIZGoqttrfyCk76lP-19" value="&lt;font style=&quot;font-size: 20px;&quot;&gt;Input&lt;/font&gt;" style="rounded=0;whiteSpace=wrap;html=1;fillColor=#CCCCCC;fontColor=#333333;strokeColor=none;" parent="1" vertex="1">
          <mxGeometry x="240" y="40" width="200" height="53" as="geometry" />
        </mxCell>
        <mxCell id="X_1ddgbnGcCbuA_kLiaL-40" style="edgeStyle=orthogonalEdgeStyle;rounded=0;orthogonalLoop=1;jettySize=auto;html=1;exitX=0.5;exitY=1;exitDx=0;exitDy=0;curved=1;fillColor=#dae8fc;strokeColor=#6c8ebf;strokeWidth=4;dashed=1;dashPattern=1 2;entryX=0.5;entryY=0;entryDx=0;entryDy=0;" parent="1" edge="1">
          <mxGeometry relative="1" as="geometry">
            <Array as="points" />
            <mxPoint x="293" y="310" as="targetPoint" />
            <mxPoint x="293" y="193" as="sourcePoint" />
          </mxGeometry>
        </mxCell>
        <mxCell id="R8_YthWmbCb2M7noIES2-1" style="edgeStyle=orthogonalEdgeStyle;rounded=0;orthogonalLoop=1;jettySize=auto;html=1;exitX=0.25;exitY=1;exitDx=0;exitDy=0;entryX=0.25;entryY=0;entryDx=0;entryDy=0;strokeWidth=4;fillColor=#0050ef;strokeColor=#001DBC;dashed=1;dashPattern=1 2;" parent="1" edge="1">
          <mxGeometry relative="1" as="geometry">
            <mxPoint x="263" y="193" as="sourcePoint" />
            <mxPoint x="263" y="310" as="targetPoint" />
          </mxGeometry>
        </mxCell>
        <mxCell id="lzmcIZGoqttrfyCk76lP-20" value="&lt;span style=&quot;font-size: 13px;&quot; lang=&quot;de&quot; class=&quot;ILfuVd&quot;&gt;&lt;span style=&quot;font-size: 20px;&quot; class=&quot;hgKElc&quot;&gt;&lt;font style=&quot;font-size: 20px;&quot;&gt;&lt;b&gt;1&lt;/b&gt;&lt;/font&gt;&lt;/span&gt;&lt;/span&gt;&lt;span style=&quot;font-size: 13px;&quot; lang=&quot;de&quot; class=&quot;ILfuVd&quot;&gt;&lt;span style=&quot;font-size: 20px;&quot; class=&quot;hgKElc&quot;&gt;&lt;font style=&quot;font-size: 20px;&quot;&gt;&lt;b&gt;&lt;br&gt;&lt;/b&gt;&lt;/font&gt;&lt;/span&gt;&lt;/span&gt;" style="rounded=0;whiteSpace=wrap;html=1;fillColor=#CCCCCC;fontColor=#333333;strokeColor=none;" parent="1" vertex="1">
          <mxGeometry x="240" y="140" width="200" height="53" as="geometry" />
        </mxCell>
        <mxCell id="lzmcIZGoqttrfyCk76lP-22" value="&lt;span style=&quot;font-size: 13px;&quot; lang=&quot;de&quot; class=&quot;ILfuVd&quot;&gt;&lt;span style=&quot;font-size: 20px;&quot; class=&quot;hgKElc&quot;&gt;&lt;font style=&quot;font-size: 20px;&quot;&gt;&lt;b&gt;N&lt;/b&gt;&lt;/font&gt;&lt;/span&gt;&lt;/span&gt;&lt;span style=&quot;font-size: 13px;&quot; lang=&quot;de&quot; class=&quot;ILfuVd&quot;&gt;&lt;span style=&quot;font-size: 20px;&quot; class=&quot;hgKElc&quot;&gt;&lt;font style=&quot;font-size: 20px;&quot;&gt;&lt;br&gt;&lt;/font&gt;&lt;/span&gt;&lt;/span&gt;" style="rounded=0;whiteSpace=wrap;html=1;fillColor=#CCCCCC;fontColor=#333333;strokeColor=none;" parent="1" vertex="1">
          <mxGeometry x="240" y="310" width="200" height="53" as="geometry" />
        </mxCell>
        <mxCell id="X_1ddgbnGcCbuA_kLiaL-41" style="edgeStyle=orthogonalEdgeStyle;rounded=0;orthogonalLoop=1;jettySize=auto;html=1;exitX=0.75;exitY=1;exitDx=0;exitDy=0;curved=1;strokeWidth=4;fillColor=#ffe6cc;strokeColor=#d79b00;entryX=0.75;entryY=0;entryDx=0;entryDy=0;dashed=1;dashPattern=1 2;" parent="1" edge="1">
          <mxGeometry relative="1" as="geometry">
            <mxPoint x="321" y="310" as="targetPoint" />
            <Array as="points">
              <mxPoint x="321" y="310" />
            </Array>
            <mxPoint x="321" y="193" as="sourcePoint" />
          </mxGeometry>
        </mxCell>
        <mxCell id="B0MXASbyW1LWKGlY7M8V-1" style="edgeStyle=orthogonalEdgeStyle;rounded=0;orthogonalLoop=1;jettySize=auto;html=1;exitX=0.75;exitY=1;exitDx=0;exitDy=0;entryX=0.75;entryY=0;entryDx=0;entryDy=0;curved=1;strokeWidth=4;fillColor=#f5f5f5;strokeColor=#666666;opacity=30;" edge="1" parent="1">
          <mxGeometry relative="1" as="geometry">
            <mxPoint x="350" y="94" as="sourcePoint" />
            <mxPoint x="350" y="141" as="targetPoint" />
          </mxGeometry>
        </mxCell>
        <mxCell id="B0MXASbyW1LWKGlY7M8V-2" style="edgeStyle=orthogonalEdgeStyle;rounded=0;orthogonalLoop=1;jettySize=auto;html=1;exitX=0.75;exitY=1;exitDx=0;exitDy=0;entryX=0.75;entryY=0;entryDx=0;entryDy=0;curved=1;strokeWidth=4;fillColor=#f5f5f5;strokeColor=#666666;opacity=30;" edge="1" parent="1">
          <mxGeometry relative="1" as="geometry">
            <mxPoint x="376" y="94" as="sourcePoint" />
            <mxPoint x="376" y="141" as="targetPoint" />
          </mxGeometry>
        </mxCell>
        <mxCell id="B0MXASbyW1LWKGlY7M8V-3" style="edgeStyle=orthogonalEdgeStyle;rounded=0;orthogonalLoop=1;jettySize=auto;html=1;exitX=0.75;exitY=1;exitDx=0;exitDy=0;entryX=0.75;entryY=0;entryDx=0;entryDy=0;curved=1;strokeWidth=4;fillColor=#f5f5f5;strokeColor=#666666;opacity=30;" edge="1" parent="1">
          <mxGeometry relative="1" as="geometry">
            <mxPoint x="401" y="94" as="sourcePoint" />
            <mxPoint x="401" y="141" as="targetPoint" />
          </mxGeometry>
        </mxCell>
        <mxCell id="B0MXASbyW1LWKGlY7M8V-6" style="edgeStyle=orthogonalEdgeStyle;rounded=0;orthogonalLoop=1;jettySize=auto;html=1;exitX=0.75;exitY=1;exitDx=0;exitDy=0;entryX=0.75;entryY=0;entryDx=0;entryDy=0;curved=1;strokeWidth=4;fillColor=#f5f5f5;strokeColor=#666666;opacity=30;" edge="1" parent="1">
          <mxGeometry relative="1" as="geometry">
            <mxPoint x="425" y="94" as="sourcePoint" />
            <mxPoint x="425" y="141" as="targetPoint" />
          </mxGeometry>
        </mxCell>
        <mxCell id="B0MXASbyW1LWKGlY7M8V-7" value="&lt;span style=&quot;font-size: 39px;&quot; class=&quot;mwe-math-element&quot;&gt;&lt;span style=&quot;display: none;&quot; class=&quot;mwe-math-mathml-inline mwe-math-mathml-a11y&quot;&gt;&lt;math xmlns=&quot;http://www.w3.org/1998/Math/MathML&quot;&gt;&lt;br/&gt;  &lt;br/&gt;    &lt;mrow&gt;&lt;br/&gt;      &lt;mstyle scriptlevel=&quot;0&quot; displaystyle=&quot;true&quot;&gt;&lt;br/&gt;        &lt;mi mathvariant=&quot;normal&quot;&gt;âˆž&lt;/mi&gt;&lt;br/&gt;      &lt;/mstyle&gt;&lt;br/&gt;    &lt;/mrow&gt;&lt;br/&gt;    &lt;br/&gt;  &lt;br/&gt;&lt;/math&gt;&lt;/span&gt;&lt;img alt=&quot;{\displaystyle \infty }&quot; style=&quot;vertical-align: -0.338ex; width:2.324ex; height:1.676ex;&quot; aria-hidden=&quot;true&quot; class=&quot;mwe-math-fallback-image-inline mw-invert skin-invert&quot; src=&quot;https://wikimedia.org/api/rest_v1/media/math/render/svg/c26c105004f30c27aa7c2a9c601550a4183b1f21&quot;&gt;&lt;/span&gt;" style="text;html=1;align=center;verticalAlign=middle;resizable=0;points=[];autosize=1;strokeColor=none;fillColor=none;" vertex="1" parent="1">
          <mxGeometry x="440" y="80" width="70" height="60" as="geometry" />
        </mxCell>
        <mxCell id="B0MXASbyW1LWKGlY7M8V-8" style="edgeStyle=orthogonalEdgeStyle;rounded=0;orthogonalLoop=1;jettySize=auto;html=1;exitX=0.75;exitY=1;exitDx=0;exitDy=0;curved=1;strokeWidth=4;fillColor=#f5f5f5;strokeColor=#666666;entryX=0.75;entryY=0;entryDx=0;entryDy=0;dashed=1;dashPattern=1 2;opacity=30;" edge="1" parent="1">
          <mxGeometry relative="1" as="geometry">
            <mxPoint x="348" y="310" as="targetPoint" />
            <Array as="points">
              <mxPoint x="348" y="310" />
            </Array>
            <mxPoint x="348" y="193" as="sourcePoint" />
          </mxGeometry>
        </mxCell>
        <mxCell id="B0MXASbyW1LWKGlY7M8V-9" style="edgeStyle=orthogonalEdgeStyle;rounded=0;orthogonalLoop=1;jettySize=auto;html=1;exitX=0.75;exitY=1;exitDx=0;exitDy=0;curved=1;strokeWidth=4;fillColor=#f5f5f5;strokeColor=#666666;entryX=0.75;entryY=0;entryDx=0;entryDy=0;dashed=1;dashPattern=1 2;opacity=30;" edge="1" parent="1">
          <mxGeometry relative="1" as="geometry">
            <mxPoint x="376" y="310" as="targetPoint" />
            <Array as="points">
              <mxPoint x="376" y="310" />
            </Array>
            <mxPoint x="376" y="193" as="sourcePoint" />
          </mxGeometry>
        </mxCell>
        <mxCell id="B0MXASbyW1LWKGlY7M8V-10" style="edgeStyle=orthogonalEdgeStyle;rounded=0;orthogonalLoop=1;jettySize=auto;html=1;exitX=0.75;exitY=1;exitDx=0;exitDy=0;curved=1;strokeWidth=4;fillColor=#f5f5f5;strokeColor=#666666;entryX=0.75;entryY=0;entryDx=0;entryDy=0;dashed=1;dashPattern=1 2;opacity=30;" edge="1" parent="1">
          <mxGeometry relative="1" as="geometry">
            <mxPoint x="400" y="310" as="targetPoint" />
            <Array as="points">
              <mxPoint x="400" y="310" />
            </Array>
            <mxPoint x="400" y="193" as="sourcePoint" />
          </mxGeometry>
        </mxCell>
        <mxCell id="B0MXASbyW1LWKGlY7M8V-11" style="edgeStyle=orthogonalEdgeStyle;rounded=0;orthogonalLoop=1;jettySize=auto;html=1;exitX=0.75;exitY=1;exitDx=0;exitDy=0;curved=1;strokeWidth=4;fillColor=#f5f5f5;strokeColor=#666666;entryX=0.75;entryY=0;entryDx=0;entryDy=0;dashed=1;dashPattern=1 2;opacity=30;" edge="1" parent="1">
          <mxGeometry relative="1" as="geometry">
            <mxPoint x="424" y="310" as="targetPoint" />
            <Array as="points">
              <mxPoint x="424" y="310" />
            </Array>
            <mxPoint x="424" y="193" as="sourcePoint" />
          </mxGeometry>
        </mxCell>
      </root>
    </mxGraphModel>
  </diagram>
</mxfile>
